<svg id="Layer_1" enable-background="new 0 0 511.318 511.318" height="512" viewBox="0 0 511.318 511.318" width="512" xmlns="http://www.w3.org/2000/svg"><path d="m500.159 237.036-362.666-192c-13.976-7.396-30.826 2.756-30.826 18.56v85.667h-64.333c-11.598 0-21 9.402-21 21s9.402 21 21 21h64.333v171.333h-64.333c-11.598 0-21 9.402-21 21s9.402 21 21 21h64.333v43c0 11.594 9.41 21 21.001 21 7.607 0-18.57 12.592 372.491-194.44 14.875-7.875 14.881-29.242 0-37.12zm-351.492 175.681v-136.121h171c11.598 0 21-9.402 21-21s-9.402-21-21-21h-171v-136.121l296.784 157.121z"/><path d="m21 116.596h32c11.598 0 21-9.402 21-21s-9.402-21-21-21h-32c-11.598 0-21 9.402-21 21s9.402 21 21 21z"/><path d="m74 308.929c0-11.598-9.402-21-21-21h-32c-11.598 0-21 9.402-21 21s9.402 21 21 21h32c11.598 0 21-9.402 21-21z"/></svg>