<svg width="24" height="24" xmlns="http://www.w3.org/2000/svg" fill-rule="evenodd" clip-rule="evenodd" stroke-linejoin="round" stroke-miterlimit="1.414"><path d="M19 24H5a5 5 0 01-5-5V5a5 5 0 015-5h14a5 5 0 015 5v14a5 5 0 01-5 5zm-2.744-5.148a.788.788 0 00.738.097.773.773 0 00.483-.56c.579-2.722 1.985-9.614 2.512-12.09a.525.525 0 00-.173-.506.538.538 0 00-.532-.093C16.489 6.734 7.88 9.964 4.361 11.267A.551.551 0 004 11.8c.008.235.167.44.395.509 1.578.471 3.65 1.128 3.65 1.128s.967 2.924 1.472 4.41c.063.187.21.334.402.384a.576.576 0 00.541-.138l2.064-1.948s2.381 1.746 3.732 2.707zm-7.34-5.784l1.119 3.692.249-2.338 6.79-6.124a.185.185 0 00.022-.251.19.19 0 00-.251-.043l-7.929 5.064z"/></svg>