<?xml version="1.0" standalone="no"?>
<!DOCTYPE svg PUBLIC "-//W3C//DTD SVG 20010904//EN"
 "http://www.w3.org/TR/2001/REC-SVG-20010904/DTD/svg10.dtd">
<svg version="1.0" xmlns="http://www.w3.org/2000/svg"
 width="512.000000pt" height="512.000000pt" viewBox="0 0 512.000000 512.000000"
 preserveAspectRatio="xMidYMid meet">
<metadata>
Created by potrace 1.14, written by Peter Selinger 2001-2017
</metadata>
<g transform="translate(0.000000,512.000000) scale(0.100000,-0.100000)"
fill="#000000" stroke="none">
<path d="M2354 5110 c-500 -42 -969 -226 -1374 -538 -109 -85 -347 -323 -432
-432 -436 -566 -618 -1251 -518 -1950 64 -440 239 -850 519 -1210 81 -105 311
-337 410 -415 40 -32 121 -90 180 -129 723 -489 1674 -571 2469 -212 727 328
1275 995 1447 1760 48 217 59 315 59 556 -1 440 -74 764 -259 1145 -340 699
-985 1205 -1750 1374 -216 48 -535 69 -751 51z m-344 -1305 l220 220 120 -120
120 -120 -220 -220 -220 -220 220 -220 220 -220 -120 -120 -120 -120 -220 220
-220 220 -220 -220 -220 -220 -115 115 c-63 63 -115 119 -115 125 0 6 97 107
215 225 l215 215 -217 217 -218 218 120 120 120 120 217 -217 218 -218 220
220z m1475 190 c186 -47 364 -190 443 -355 97 -202 95 -398 -4 -600 -65 -132
-164 -229 -296 -294 -202 -99 -387 -99 -593 -1 -330 158 -468 561 -306 890 87
176 245 306 433 355 91 24 241 26 323 5z m-1480 -1583 c165 -57 308 -183 384
-336 159 -319 43 -698 -269 -883 -125 -74 -321 -103 -474 -68 -229 50 -426
234 -496 460 -77 252 14 549 217 710 98 78 208 124 353 149 64 11 205 -5 285
-32z m1107 -179 l218 -218 220 220 220 220 115 -115 c63 -63 115 -119 115
-125 0 -6 -97 -107 -215 -225 l-215 -215 217 -217 218 -218 -120 -120 -120
-120 -217 217 -218 218 -101 -100 c-55 -55 -150 -151 -212 -212 -61 -62 -116
-113 -122 -113 -6 0 -62 52 -125 115 l-115 115 218 218 217 217 -220 220 -220
220 117 117 c65 65 120 118 123 118 3 0 103 -98 222 -217z"/>
<path d="M3202 3649 c-64 -25 -140 -97 -172 -163 -35 -73 -39 -182 -10 -260
29 -76 94 -147 169 -183 47 -24 69 -28 136 -28 137 1 238 63 297 183 29 59 33
76 33 147 0 96 -22 150 -86 220 -65 71 -126 98 -229 102 -68 2 -95 -1 -138
-18z"/>
<path d="M1714 2101 c-93 -23 -186 -100 -227 -189 -33 -71 -31 -198 4 -272 31
-66 93 -130 157 -161 40 -20 62 -24 142 -24 79 0 103 4 142 24 63 31 121 88
155 153 24 47 28 64 28 143 0 102 -18 153 -76 219 -78 90 -212 134 -325 107z"/>
</g>
</svg>
