<?xml version="1.0" standalone="no"?>
<!DOCTYPE svg PUBLIC "-//W3C//DTD SVG 20010904//EN"
 "http://www.w3.org/TR/2001/REC-SVG-20010904/DTD/svg10.dtd">
<svg version="1.0" xmlns="http://www.w3.org/2000/svg"
 width="700.000000pt" height="700.000000pt" viewBox="0 0 700.000000 700.000000"
 preserveAspectRatio="xMidYMid meet">
<metadata>
Created by potrace 1.14, written by Peter Selinger 2001-2017
</metadata>
<g transform="translate(0.000000,700.000000) scale(0.100000,-0.100000)"
fill="#000000" stroke="none">
<path d="M1050 6099 c-60 -27 -117 -83 -146 -144 -23 -48 -24 -58 -24 -302 l0
-253 -220 -587 c-121 -322 -220 -600 -220 -618 0 -39 26 -127 52 -178 65 -128
231 -227 380 -227 199 0 368 124 424 309 l18 61 13 -52 c47 -183 226 -318 423
-318 198 0 375 134 423 320 l15 55 12 -45 c30 -111 124 -231 221 -281 124 -63
284 -63 408 0 97 50 191 170 221 281 l12 45 15 -55 c48 -186 225 -320 423
-320 198 0 375 134 423 320 l15 55 12 -45 c30 -111 124 -231 221 -281 124 -63
284 -63 408 0 97 50 191 170 221 281 l12 45 15 -55 c48 -186 225 -320 423
-320 197 0 376 135 423 318 l13 52 18 -61 c96 -319 510 -415 739 -170 67 71
117 186 117 266 0 18 -99 296 -220 618 l-220 587 0 253 c0 232 -2 256 -21 297
-27 60 -83 117 -144 146 l-50 24 -2405 0 c-2396 0 -2405 -1 -2450 -21z"/>
<path d="M3930 2480 l0 -1020 -1600 0 -1600 0 0 -288 0 -289 2348 -6 c1291 -4
2537 -4 2770 0 l422 6 0 289 0 288 -290 0 -290 0 0 1020 0 1020 -880 0 -880 0
0 -1020z"/>
<path d="M1460 2700 l0 -660 875 0 875 0 0 660 0 660 -875 0 -875 0 0 -660z"/>
</g>
</svg>
